<?xml version="1.0" encoding="utf-8"?>
<svg width="233.01465px" height="124px" viewBox="0 0 233.01465 124" version="1.1" xmlns:xlink="http://www.w3.org/1999/xlink" xmlns="http://www.w3.org/2000/svg">
  <g id="Group-8">
    <path d="M121 0C122.657 0 124 1.34292 124 3L124 121C124 122.657 122.657 124 121 124L3 124C1.34292 124 0 122.657 0 121L0 3C0 1.34292 1.34292 0 3 0L121 0Z" id="Rectangle-2" fill="#B5E742" stroke="none" />
    <g id="elfedali" transform="translate(13.614746 35)">
      <g id="elfedali">
        <path d="M6.46875 59.8008Q6.67969 63.8438 11.918 63.8438Q13.8516 63.8438 15.9434 62.7363Q18.0352 61.6289 19.3359 60.1172L20.8477 61.1016Q17.9297 65.9883 11.5312 67.0781Q10.125 67.2891 8.82422 67.2891Q5.02734 67.2891 2.49609 64.7754Q-0.0351562 62.2617 -0.0351562 58.6406Q-0.0351562 55.0195 2.17969 51.9434Q4.39453 48.8672 7.7168 47.1797Q11.0391 45.4922 14.2734 45.4922Q17.5078 45.4922 19.8809 46.9688Q22.2539 48.4453 22.3066 50.9414Q22.3594 53.4375 20.8477 55.248Q19.3359 57.0586 17.0156 58.0078Q12.4102 59.8711 7.98047 59.8711L6.46875 59.8008ZM6.25781 57.8672Q10.1602 57.7266 12.5332 56.6191Q14.9062 55.5117 15.8379 54.0879Q16.7695 52.6641 16.7695 51.0996Q16.7695 49.5352 15.9609 48.7793Q15.1523 48.0234 14.2383 48.0234Q11.9883 48.0234 10.1074 49.5879Q8.22656 51.1523 7.24219 53.3848Q6.25781 55.6172 6.25781 57.8672ZM37.8984 19.9688L43.5938 19.9688Q42.082 22.5703 38.9531 31.5176Q35.8242 40.4648 33.2402 49.5176Q30.6562 58.5703 30.6562 60.5918Q30.6562 62.6133 31.1484 62.6133Q32.625 62.6133 35.7539 58.1484L37.2305 59.5547Q35.6836 62.2266 33.8906 64.0547Q30.7266 67.2891 28.7578 67.2891Q25.1719 67.2891 25.1719 62.9648Q25.1719 56.5312 29.4434 42.6797Q33.7148 28.8281 37.8984 19.9688ZM51.5391 48.5859L50.6953 52.1719Q48.3398 62.1211 46.793 66.1641Q43.8047 73.8633 39.1289 75.9023Q37.1953 76.7461 35.209 76.7461Q33.2227 76.7461 32.4141 75.9902Q31.6055 75.2344 31.6055 74.1621Q31.6055 73.0898 32.3086 72.3164Q33.0117 71.543 34.084 71.543Q35.1562 71.543 35.8594 72.0352Q36.5625 72.5273 36.5625 73.3887Q36.5625 74.25 36.0703 75.0234Q39.6914 74.4609 42.5742 61.3125Q43.0312 59.2383 43.6113 56.373Q44.1914 53.5078 44.5078 52.1719L45.3516 48.5859L38.7422 48.5859L39.3047 46.2656L45.8438 46.2656Q50.0273 29.2852 55.6523 22.5703Q60.293 17.0508 66.8672 17.0508Q69.8203 17.0508 71.8418 18.2461Q73.8633 19.4414 73.8633 22.2188Q73.8633 23.8359 72.7559 24.7676Q71.6484 25.6992 70.1543 25.6992Q68.6602 25.6992 67.623 24.8379Q66.5859 23.9766 66.5859 22.6055Q66.5859 21.2344 67.5352 19.9336Q65.8125 19.3359 64.8281 19.3359Q63.8438 19.3359 62.4902 20.3027Q61.1367 21.2695 60.082 22.8867Q55.9688 29.2148 52.0664 46.2656L60.4688 46.2656L59.9062 48.5859L51.5391 48.5859ZM63.6328 59.8008Q63.8438 63.8438 69.082 63.8438Q71.0156 63.8438 73.1074 62.7363Q75.1992 61.6289 76.5 60.1172L78.0117 61.1016Q75.0938 65.9883 68.6953 67.0781Q67.2891 67.2891 65.9883 67.2891Q62.1914 67.2891 59.6602 64.7754Q57.1289 62.2617 57.1289 58.6406Q57.1289 55.0195 59.3438 51.9434Q61.5586 48.8672 64.8809 47.1797Q68.2031 45.4922 71.4375 45.4922Q74.6719 45.4922 77.0449 46.9688Q79.418 48.4453 79.4707 50.9414Q79.5234 53.4375 78.0117 55.248Q76.5 57.0586 74.1797 58.0078Q69.5742 59.8711 65.1445 59.8711L63.6328 59.8008ZM63.4219 57.8672Q67.3242 57.7266 69.6973 56.6191Q72.0703 55.5117 73.002 54.0879Q73.9336 52.6641 73.9336 51.0996Q73.9336 49.5352 73.125 48.7793Q72.3164 48.0234 71.4023 48.0234Q69.1523 48.0234 67.2715 49.5879Q65.3906 51.1523 64.4062 53.3848Q63.4219 55.6172 63.4219 57.8672ZM99.0352 62.4023Q95.3438 67.2891 90.2109 67.2891Q86.7656 67.2891 84.375 64.7754Q81.9844 62.2617 81.9844 58.3594Q81.9844 53.1211 85.9219 49.3066Q89.8594 45.4922 94.7461 45.4922Q97.2773 45.4922 99.0879 46.4941Q100.898 47.4961 101.426 49.2188Q103.043 42.5742 106.084 33.8027Q109.125 25.0312 111.691 20.0039L117.316 20.0039Q114.047 26.4727 109.266 41.9238Q104.484 57.375 104.484 61.2422Q104.484 62.6133 105.047 62.6133Q106.453 62.6133 109.547 58.1484L111.059 59.5547Q108.844 63.4922 106.312 65.3906Q103.781 67.2891 102.252 67.2891Q100.723 67.2891 99.8613 66.1816Q99 65.0742 99 62.9648Q99 62.8945 99.0176 62.7012Q99.0352 62.5078 99.0352 62.4023ZM88.3477 58.1484Q88.3477 63.8086 92.707 63.8086Q96.7852 63.8086 99.4219 58.3594Q100.652 55.793 100.652 54.2109Q100.652 48.5156 96.3281 48.5156Q93.4453 48.5156 90.8965 51.1699Q88.3477 53.8242 88.3477 58.1484ZM132.363 46.2656L137.848 46.2656L135.07 56.7773Q134.402 58.9922 134.402 60.8027Q134.402 62.6133 135.035 62.6133Q135.668 62.6133 136.775 61.5059Q137.883 60.3984 138.656 59.2734L139.465 58.1484L140.977 59.5547Q139.816 61.8047 138.023 63.668Q134.543 67.2891 131.977 67.2891Q128.953 67.2891 128.953 62.6133Q128.953 61.8398 129.023 61.4531Q128.496 63.2461 127.02 64.6172Q124.207 67.2891 120.674 67.2891Q117.141 67.2891 115.014 64.8809Q112.887 62.4727 112.887 58.8516Q112.887 53.2266 116.543 49.3594Q120.199 45.4922 125.121 45.4922Q127.582 45.4922 129.199 46.8457Q130.816 48.1992 131.309 50.3789L132.363 46.2656ZM126.492 48.5156Q124.453 48.5156 122.678 50.2207Q120.902 51.9258 119.953 54.334Q119.004 56.7422 119.004 59.0273Q119.004 61.3125 120.006 62.7188Q121.008 64.125 123.1 64.125Q125.191 64.125 126.879 62.2266Q130.078 58.5703 130.078 53.543Q130.078 48.5156 126.492 48.5156ZM155.918 19.9688L161.613 19.9688Q160.102 22.5703 156.973 31.5176Q153.844 40.4648 151.26 49.5176Q148.676 58.5703 148.676 60.5918Q148.676 62.6133 149.168 62.6133Q150.645 62.6133 153.773 58.1484L155.25 59.5547Q153.703 62.2266 151.91 64.0547Q148.746 67.2891 146.777 67.2891Q143.191 67.2891 143.191 62.9648Q143.191 56.5312 147.463 42.6797Q151.734 28.8281 155.918 19.9688ZM163.371 67.2891Q161.895 67.2891 161.051 66.375Q160.207 65.4609 160.207 63.8613Q160.207 62.2617 161.033 59.502Q161.859 56.7422 162.686 54.4922Q163.512 52.2422 163.512 51.4863Q163.512 50.7305 163.02 50.7305Q161.789 50.7305 159.047 55.582L156.691 54.2109Q161.859 45.4922 166.184 45.4922Q169.137 45.4922 169.137 49.2188Q169.137 50.3086 168.434 52.6992L165.902 59.9414Q165.516 60.9609 165.516 61.7871Q165.516 62.6133 166.148 62.6133Q167.344 62.6133 170.543 58.1836L172.02 59.5547Q170.121 63.0703 167.502 65.1797Q164.883 67.2891 163.371 67.2891ZM173.391 35.1211Q173.391 36.5273 172.441 37.6875Q171.492 38.8477 169.875 38.8477Q168.258 38.8477 167.449 37.8809Q166.641 36.9141 166.641 35.4375Q166.641 33.9609 167.643 32.8184Q168.645 31.6758 170.227 31.6758Q171.809 31.6758 172.6 32.6777Q173.391 33.6797 173.391 35.1211Z" />
      </g>
    </g>
    <g id="Abdessamad" transform="translate(12.014648 6)">
      <g id="Abdessamad">
        <path d="M26.0156 44.0156L26.6953 42.8438Q27.6328 43.3828 28.5938 43.3828Q30.4453 43.3828 31.9688 41.3906Q33.4922 39.3984 34.5234 36.0938L19.1484 36.0938L17.2266 38.9531Q15.0938 42.1172 12.3516 43.5703Q9.60938 45.0234 6.23438 45.0234Q2.85938 45.0234 1.30078 43.7344Q-0.257812 42.4453 -0.257812 41.0039Q-0.257812 39.5625 0.597656 38.6836Q1.45312 37.8047 2.73047 37.8047Q4.00781 37.8047 4.61719 38.6133Q5.22656 39.4219 5.22656 40.7695Q5.22656 42.1172 3.96094 42.7969Q4.03125 43.0312 4.48828 43.2539Q4.94531 43.4766 5.75391 43.4766Q6.5625 43.4766 7.3125 43.2773Q8.0625 43.0781 9.04688 42.3984Q10.0312 41.7188 11.1094 40.3594Q13.4297 37.4297 16.8984 31.418Q20.3672 25.4062 23.6602 21.4102Q26.9531 17.4141 31.5234 14.25Q30.1641 13.3594 28.1953 12.8203Q26.2266 12.2812 23.7773 12.2812Q21.3281 12.2812 18.668 13.1602Q16.0078 14.0391 14.168 15.5391Q12.3281 17.0391 11.0625 19.0781Q8.60156 22.9922 8.60156 28.2188Q8.60156 31.8047 9.82031 35.2734L8.29688 36Q5.67188 31.7578 5.67188 27Q5.67188 23.7891 6.9375 20.8594Q8.20312 17.9297 10.4883 15.6562Q12.7734 13.3828 16.2891 12.0352Q19.8047 10.6875 24 10.6875Q27.0469 10.6875 28.3594 11.1094L30.0469 11.625Q30.8906 11.8828 32.0391 12.5742Q33.1875 13.2656 33.2109 13.2891Q35.4609 12.2344 37.0781 11.918Q38.6953 11.6016 40.8281 11.6016L41.4141 12.7031Q37.6875 12.7031 34.6875 14.4844Q37.4766 16.9219 38.8359 20.7188Q40.1953 24.5156 40.1953 29.0508Q40.1953 33.5859 38.9062 37.6758Q37.6172 41.7656 35.4727 44.1562Q33.3281 46.5469 30.8203 46.5469Q28.3125 46.5469 26.0156 44.0156ZM33.2109 15.5625Q29.2734 18.4922 26.7656 22.3828Q24.5859 25.7344 22.7227 29.3906Q20.8594 33.0469 19.9922 34.5938L34.9453 34.5938Q36.0469 30.1875 36.0469 25.8281Q36.0469 18.6094 33.2109 15.5625ZM55.5 41.7422Q54.3516 43.125 52.4531 43.9922Q50.5547 44.8594 48.0703 44.8594Q45.5859 44.8594 43.8633 43.3828Q42.1406 41.9062 42.1406 39.6328Q42.1406 39.375 42.2344 38.6719Q43.1953 32.2266 45.7266 24.5508Q48.2578 16.875 51.1641 13.1016L55.1484 13.1016Q53.3906 15.0703 50.9414 21.4688Q48.4922 27.8672 46.9922 34.0781Q49.8281 30.3281 53.3672 30.3281Q55.5703 30.3281 56.7539 31.8164Q57.9375 33.3047 57.9375 35.2266Q57.9375 37.1484 57.3047 38.7539Q56.6719 40.3594 55.5 41.7422ZM46.2656 38.6719Q46.0781 39.6562 46.0781 40.582Q46.0781 41.5078 46.7578 42.457Q47.4375 43.4062 48.8438 43.4062Q50.25 43.4062 51.4219 42.1875Q53.6719 39.8203 53.6719 35.9297Q53.6719 34.3359 53.1328 33.3164Q52.5938 32.2969 51.4688 32.2969Q50.3438 32.2969 48.668 34.1016Q46.9922 35.9062 46.2656 38.6719ZM71.1797 41.6016Q68.7188 44.8594 65.2969 44.8594Q63 44.8594 61.4062 43.1836Q59.8125 41.5078 59.8125 38.9062Q59.8125 35.4141 62.4375 32.8711Q65.0625 30.3281 68.3203 30.3281Q70.0078 30.3281 71.2148 30.9961Q72.4219 31.6641 72.7734 32.8125Q73.8516 28.3828 75.8789 22.5352Q77.9062 16.6875 79.6172 13.3359L83.3672 13.3359Q81.1875 17.6484 78 27.9492Q74.8125 38.25 74.8125 40.8281Q74.8125 41.7422 75.1875 41.7422Q76.125 41.7422 78.1875 38.7656L79.1953 39.7031Q77.7188 42.3281 76.0312 43.5938Q74.3438 44.8594 73.3242 44.8594Q72.3047 44.8594 71.7305 44.1211Q71.1562 43.3828 71.1562 41.9766Q71.1562 41.9297 71.168 41.8008Q71.1797 41.6719 71.1797 41.6016ZM64.0547 38.7656Q64.0547 42.5391 66.9609 42.5391Q69.6797 42.5391 71.4375 38.9062Q72.2578 37.1953 72.2578 36.1406Q72.2578 32.3438 69.375 32.3438Q67.4531 32.3438 65.7539 34.1133Q64.0547 35.8828 64.0547 38.7656ZM84.75 39.8672Q84.8906 42.5625 88.3828 42.5625Q89.6719 42.5625 91.0664 41.8242Q92.4609 41.0859 93.3281 40.0781L94.3359 40.7344Q92.3906 43.9922 88.125 44.7188Q87.1875 44.8594 86.3203 44.8594Q83.7891 44.8594 82.1016 43.1836Q80.4141 41.5078 80.4141 39.0938Q80.4141 36.6797 81.8906 34.6289Q83.3672 32.5781 85.582 31.4531Q87.7969 30.3281 89.9531 30.3281Q92.1094 30.3281 93.6914 31.3125Q95.2734 32.2969 95.3086 33.9609Q95.3438 35.625 94.3359 36.832Q93.3281 38.0391 91.7812 38.6719Q88.7109 39.9141 85.7578 39.9141L84.75 39.8672ZM84.6094 38.5781Q87.2109 38.4844 88.793 37.7461Q90.375 37.0078 90.9961 36.0586Q91.6172 35.1094 91.6172 34.0664Q91.6172 33.0234 91.0781 32.5195Q90.5391 32.0156 89.9297 32.0156Q88.4297 32.0156 87.1758 33.0586Q85.9219 34.1016 85.2656 35.5898Q84.6094 37.0781 84.6094 38.5781ZM99.1641 44.3203Q97.6406 43.7812 96.9844 43.043Q96.3281 42.3047 96.3281 41.4141Q96.3281 40.5234 96.8203 39.9375Q97.3125 39.3516 98.1211 39.3516Q98.9297 39.3516 99.5508 39.832Q100.172 40.3125 100.172 41.1914Q100.172 42.0703 99.0938 42.6562Q99.9844 43.4297 101.812 43.4297Q105.773 43.4297 105.773 41.1797Q105.773 39.7734 103.266 38.9297Q102.234 38.5781 101.191 38.1797Q100.148 37.7812 99.375 37.0078Q98.6016 36.2344 98.5312 35.1328Q98.5312 33.5391 99.5859 32.4375Q101.578 30.3281 105.539 30.3281Q107.484 30.3281 108.984 31.0664Q110.484 31.8047 110.484 32.9766Q110.484 34.1484 109.887 34.6641Q109.289 35.1797 108.492 35.1797Q107.695 35.1797 107.145 34.7461Q106.594 34.3125 106.594 33.5391Q106.594 32.7656 107.508 32.2031Q106.945 31.8047 105.562 31.8047Q104.18 31.8047 103.078 32.2148Q101.977 32.625 101.977 33.3281Q101.977 34.0312 102.785 34.5Q103.594 34.9688 104.742 35.3672Q105.891 35.7656 107.039 36.2812Q108.188 36.7969 108.996 37.7578Q109.805 38.7188 109.805 40.125Q109.805 41.5312 108.656 42.6797Q106.477 44.8594 102.703 44.8594Q100.711 44.8594 99.1641 44.3203ZM114.562 44.3203Q113.039 43.7812 112.383 43.043Q111.727 42.3047 111.727 41.4141Q111.727 40.5234 112.219 39.9375Q112.711 39.3516 113.52 39.3516Q114.328 39.3516 114.949 39.832Q115.57 40.3125 115.57 41.1914Q115.57 42.0703 114.492 42.6562Q115.383 43.4297 117.211 43.4297Q121.172 43.4297 121.172 41.1797Q121.172 39.7734 118.664 38.9297Q117.633 38.5781 116.59 38.1797Q115.547 37.7812 114.773 37.0078Q114 36.2344 113.93 35.1328Q113.93 33.5391 114.984 32.4375Q116.977 30.3281 120.938 30.3281Q122.883 30.3281 124.383 31.0664Q125.883 31.8047 125.883 32.9766Q125.883 34.1484 125.285 34.6641Q124.688 35.1797 123.891 35.1797Q123.094 35.1797 122.543 34.7461Q121.992 34.3125 121.992 33.5391Q121.992 32.7656 122.906 32.2031Q122.344 31.8047 120.961 31.8047Q119.578 31.8047 118.477 32.2148Q117.375 32.625 117.375 33.3281Q117.375 34.0312 118.184 34.5Q118.992 34.9688 120.141 35.3672Q121.289 35.7656 122.438 36.2812Q123.586 36.7969 124.395 37.7578Q125.203 38.7188 125.203 40.125Q125.203 41.5312 124.055 42.6797Q121.875 44.8594 118.102 44.8594Q116.109 44.8594 114.562 44.3203ZM140.742 30.8438L144.398 30.8438L142.547 37.8516Q142.102 39.3281 142.102 40.5352Q142.102 41.7422 142.523 41.7422Q142.945 41.7422 143.684 41.0039Q144.422 40.2656 144.938 39.5156L145.477 38.7656L146.484 39.7031Q145.711 41.2031 144.516 42.4453Q142.195 44.8594 140.484 44.8594Q138.469 44.8594 138.469 41.7422Q138.469 41.2266 138.516 40.9688Q138.164 42.1641 137.18 43.0781Q135.305 44.8594 132.949 44.8594Q130.594 44.8594 129.176 43.2539Q127.758 41.6484 127.758 39.2344Q127.758 35.4844 130.195 32.9062Q132.633 30.3281 135.914 30.3281Q137.555 30.3281 138.633 31.2305Q139.711 32.1328 140.039 33.5859L140.742 30.8438ZM136.828 32.3438Q135.469 32.3438 134.285 33.4805Q133.102 34.6172 132.469 36.2227Q131.836 37.8281 131.836 39.3516Q131.836 40.875 132.504 41.8125Q133.172 42.75 134.566 42.75Q135.961 42.75 137.086 41.4844Q139.219 39.0469 139.219 35.6953Q139.219 32.3438 136.828 32.3438ZM162.656 44.4844L159.188 44.4844L159.633 42.9375Q159.867 42.0234 160.477 40.2656Q161.836 36.4453 161.836 34.3125Q161.836 33.3984 161.062 33.3984Q160.102 33.3984 158.801 34.5352Q157.5 35.6719 156.305 37.3125Q154.312 40.0547 152.367 43.3594L151.711 44.4844L148.406 44.4844Q148.406 44.4844 149.133 42.2812Q151.172 36.1875 151.172 35.0508Q151.172 33.9141 150.797 33.9141Q150.117 33.9141 149.18 35.5312Q148.969 35.9062 148.828 36.1289Q148.688 36.3516 148.512 36.668Q148.336 36.9844 148.289 37.0547L146.719 36.1406Q148.547 33.1641 150.07 31.7461Q151.594 30.3281 153.188 30.3281Q153.914 30.3281 154.441 30.9375Q154.969 31.5469 154.969 32.3789Q154.969 33.2109 154.875 33.8555Q154.781 34.5 154.664 35.0391Q154.547 35.5781 154.336 36.3281Q154.125 37.0781 153.996 37.4766Q153.867 37.875 153.656 38.5547Q153.445 39.2344 153.398 39.3516Q153.867 38.5312 154.922 36.8906Q155.977 35.25 156.316 34.8164Q156.656 34.3828 157.219 33.6914Q157.781 33 158.215 32.6016Q158.648 32.2031 159.258 31.7109Q159.867 31.2188 160.406 30.9609Q161.719 30.3281 163.066 30.3281Q164.414 30.3281 165.117 31.0898Q165.82 31.8516 165.82 32.8711Q165.82 33.8906 165.504 34.9922Q165.188 36.0938 164.625 37.5586Q164.062 39.0234 163.898 39.5391Q166.148 35.8828 167.344 34.3828Q170.602 30.3281 173.789 30.3281Q175.359 30.3281 176.039 31.0781Q176.719 31.8281 176.719 33.1172Q176.719 34.4062 175.617 37.3945Q174.516 40.3828 174.516 41.0625Q174.516 41.7422 174.938 41.7422Q175.875 41.7422 177.914 38.7656L178.922 39.7031Q177.539 42.1641 175.875 43.5117Q174.211 44.8594 173.027 44.8594Q171.844 44.8594 171.375 44.0859Q170.906 43.3125 170.906 42.2461Q170.906 41.1797 171.844 38.4727Q172.781 35.7656 172.781 34.3125Q172.781 33.3984 171.961 33.3984Q169.617 33.3984 165.188 40.2656Q163.383 43.0547 162.656 44.4844ZM193.125 30.8438L196.781 30.8438L194.93 37.8516Q194.484 39.3281 194.484 40.5352Q194.484 41.7422 194.906 41.7422Q195.328 41.7422 196.066 41.0039Q196.805 40.2656 197.32 39.5156L197.859 38.7656L198.867 39.7031Q198.094 41.2031 196.898 42.4453Q194.578 44.8594 192.867 44.8594Q190.852 44.8594 190.852 41.7422Q190.852 41.2266 190.898 40.9688Q190.547 42.1641 189.562 43.0781Q187.688 44.8594 185.332 44.8594Q182.977 44.8594 181.559 43.2539Q180.141 41.6484 180.141 39.2344Q180.141 35.4844 182.578 32.9062Q185.016 30.3281 188.297 30.3281Q189.938 30.3281 191.016 31.2305Q192.094 32.1328 192.422 33.5859L193.125 30.8438ZM189.211 32.3438Q187.852 32.3438 186.668 33.4805Q185.484 34.6172 184.852 36.2227Q184.219 37.8281 184.219 39.3516Q184.219 40.875 184.887 41.8125Q185.555 42.75 186.949 42.75Q188.344 42.75 189.469 41.4844Q191.602 39.0469 191.602 35.6953Q191.602 32.3438 189.211 32.3438ZM211.477 41.6016Q209.016 44.8594 205.594 44.8594Q203.297 44.8594 201.703 43.1836Q200.109 41.5078 200.109 38.9062Q200.109 35.4141 202.734 32.8711Q205.359 30.3281 208.617 30.3281Q210.305 30.3281 211.512 30.9961Q212.719 31.6641 213.07 32.8125Q214.148 28.3828 216.176 22.5352Q218.203 16.6875 219.914 13.3359L223.664 13.3359Q221.484 17.6484 218.297 27.9492Q215.109 38.25 215.109 40.8281Q215.109 41.7422 215.484 41.7422Q216.422 41.7422 218.484 38.7656L219.492 39.7031Q218.016 42.3281 216.328 43.5938Q214.641 44.8594 213.621 44.8594Q212.602 44.8594 212.027 44.1211Q211.453 43.3828 211.453 41.9766Q211.453 41.9297 211.465 41.8008Q211.477 41.6719 211.477 41.6016ZM204.352 38.7656Q204.352 42.5391 207.258 42.5391Q209.977 42.5391 211.734 38.9062Q212.555 37.1953 212.555 36.1406Q212.555 32.3438 209.672 32.3438Q207.75 32.3438 206.051 34.1133Q204.352 35.8828 204.352 38.7656Z" />
      </g>
    </g>
  </g>
</svg>